<svg width="140" height="116" viewBox="0 0 140 116" fill="none" xmlns="http://www.w3.org/2000/svg">
<g clip-path="url(#clip0_167_2)">
<path d="M73.7241 97.4672L92.732 33.6797H111.241L83.1449 114.3H70.9535L73.7241 97.4672ZM56.2128 33.6797L75.165 97.4672L78.0467 114.3H65.7442L37.8149 33.6797H56.2128Z" fill="white"/>
<path d="M37.7226 89.549V33.6797H54.2919V89.549C54.2919 94.9384 53.1097 99.5712 50.7453 103.447C48.3809 107.286 45.1483 110.239 41.0474 112.307C36.9835 114.374 32.4027 115.408 27.3041 115.408C22.0211 115.408 17.348 114.522 13.2841 112.75C9.22013 110.978 6.02439 108.265 3.69687 104.61C1.36982 100.919 0.206055 96.2491 0.206055 90.6013H16.886C16.886 93.5544 17.2922 95.8985 18.1051 97.6335C18.9549 99.3681 20.1555 100.605 21.7071 101.343C23.2591 102.082 25.1246 102.451 27.3041 102.451C29.4098 102.451 31.2389 101.952 32.7905 100.956C34.342 99.9587 35.5426 98.5005 36.3924 96.5812C37.279 94.662 37.7226 92.3179 37.7226 89.549Z" fill="white"/>
<path d="M46.1272 24.525C52.6564 24.525 57.9493 19.2364 57.9493 12.7125C57.9493 6.18866 52.6564 0.900024 46.1272 0.900024C39.5981 0.900024 34.3052 6.18866 34.3052 12.7125C34.3052 19.2364 39.5981 24.525 46.1272 24.525Z" fill="#E91D1D"/>
<mask id="mask0_167_2" style="mask-type:luminance" maskUnits="userSpaceOnUse" x="68" y="34" width="72" height="81">
<path d="M140 34H68V115H140V34Z" fill="white"/>
</mask>
<g mask="url(#mask0_167_2)">
<path d="M106.001 47.8058L85.222 114.728H68.4834L96.8708 34H107.523L106.001 47.8058ZM123.264 114.728L102.433 47.8058L100.754 34H111.51L140.055 114.728H123.264ZM122.319 84.6766V97.7062H81.9687V84.6766H122.319Z" fill="white"/>
</g>
</g>
<defs>
<clipPath id="clip0_167_2">
<rect width="140" height="116" fill="white"/>
</clipPath>
</defs>
</svg>
