<?xml version="1.0" encoding="UTF-8" standalone="no"?>
<!DOCTYPE svg PUBLIC "-//W3C//DTD SVG 1.1//EN" "http://www.w3.org/Graphics/SVG/1.1/DTD/svg11.dtd">
<svg width="100%" height="100%" viewBox="0 0 288 52" version="1.1" xmlns="http://www.w3.org/2000/svg" xmlns:xlink="http://www.w3.org/1999/xlink" xml:space="preserve" xmlns:serif="http://www.serif.com/" style="fill-rule:evenodd;clip-rule:evenodd;stroke-linejoin:round;stroke-miterlimit:2;">
    <path d="M88.602,21.232C88.575,21.226 88.583,21.203 88.426,21.269C87.73,21.568 86.987,21.743 86.231,21.785C84.882,21.898 83.524,21.848 82.187,21.637C79.837,21.053 77.519,20.344 75.245,19.512C72.971,18.68 79.687,18.024 81.428,16.6C81.855,16.237 82.371,15.993 82.923,15.894C83.812,15.748 84.479,15.678 84.958,14.982C85.438,14.286 84.903,13.193 84.654,12.548C84.364,11.873 83.972,11.247 83.49,10.693C83.25,10.468 82.895,10.41 82.595,10.547C82.353,10.688 82.065,10.725 81.795,10.649C81.593,10.648 81.393,10.613 81.202,10.547C81.166,10.511 81.169,10.476 81.232,10.383C81.743,9.682 82.057,8.855 82.14,7.991C82.141,7.878 82.23,7.785 82.342,7.778C82.546,7.752 83.251,7.683 83.542,7.653C83.922,7.616 84.304,7.619 84.683,7.661C85.021,7.729 85.371,7.716 85.703,7.621C86.076,7.556 86.457,7.562 86.828,7.64C87.198,7.717 87.281,6.889 87.444,6.688C87.674,6.331 87.803,5.918 87.817,5.493C87.835,5.01 87.926,4.658 87.949,4.383C87.97,4.169 87.97,3.954 87.949,3.74C87.933,3.707 87.909,3.674 87.835,3.696C87.54,3.814 87.235,3.903 86.922,3.961C86.247,3.994 85.57,3.953 84.903,3.839C84.144,3.74 83.377,3.713 82.613,3.758C82.363,3.758 82.357,3.762 82.385,3.583C82.454,3.32 82.549,3.065 82.671,2.822C82.74,2.683 82.717,2.515 82.613,2.401C82.302,2.048 81.966,1.718 81.608,1.413C81.39,1.306 81.149,1.252 80.906,1.258C80.662,1.264 80.474,1.214 80.125,1.141C79.736,1.037 79.322,1.086 78.968,1.276C78.644,1.498 78.331,1.755 78.317,2C78.306,2.207 78.324,2.415 78.37,2.617C78.442,3.014 78.433,3.422 78.343,3.816C78.254,4.21 78.376,3.824 78.3,3.849C78.217,3.871 77.159,3.957 76.83,3.99C76.314,4.051 75.793,4.049 75.278,3.984C74.449,3.9 74.13,4.888 74.113,5.003C74.127,5.179 74.094,5.356 74.017,5.515C73.752,5.912 73.633,6.389 73.682,6.863C73.212,6.935 72.747,7.037 72.291,7.168C71.834,7.299 72.1,7.242 72.092,7.078C72.145,6.841 72.242,6.616 72.378,6.415C72.516,6.185 72.606,5.93 72.644,5.664C72.661,5.383 72.882,5.292 72.928,5.211C72.976,5.125 73.253,4.811 73.109,4.589C72.952,4.355 72.697,4.204 72.416,4.181C71.531,4.017 70.631,3.94 69.731,3.951C69.642,3.96 69.552,3.959 69.464,3.947C69.4,3.933 69.435,3.809 69.454,3.747C69.474,3.689 69.692,3.208 69.739,3.116C69.768,3.009 69.766,2.896 69.734,2.79C69.678,2.663 69.595,2.549 69.491,2.457C69.292,2.303 69.075,2.174 68.844,2.074C68.513,1.983 68.197,1.843 67.907,1.659C67.405,1.357 67.308,1.333 66.993,1.419C66.631,1.498 66.278,1.612 65.939,1.761C65.727,1.842 65.531,1.959 65.358,2.105C65.202,2.253 65.072,2.425 64.97,2.614C64.961,2.697 64.938,2.709 65.026,2.825C65.26,3.091 65.381,3.438 65.365,3.791C65.367,3.838 65.359,3.885 65.343,3.929C65.319,3.973 65.27,3.966 65.182,3.966C65.094,3.966 64.949,3.984 64.727,3.998C64.509,4.013 63.425,4.132 63.166,4.151C62.773,4.196 62.376,4.177 61.989,4.095C61.883,4.07 61.771,4.077 61.669,4.115C61.569,4.202 61.458,4.275 61.337,4.33C61.144,4.403 60.976,4.529 60.853,4.694C60.781,4.853 60.741,5.023 60.735,5.197C60.694,5.451 60.491,6.205 60.455,6.339C60.455,6.339 60.308,6.874 60.286,7.009C60.263,7.142 60.195,7.495 60.178,7.701C60.17,7.955 60.243,8.205 60.388,8.414C60.553,8.695 60.627,8.885 60.875,8.882C61.15,8.849 61.413,8.748 61.639,8.589C61.991,8.369 62.375,8.205 62.777,8.104C63.167,8.04 64.085,7.985 64.259,7.974C64.43,7.962 65.315,7.952 65.446,7.958C65.572,7.962 65.89,7.916 65.874,8.255C65.802,8.724 65.866,9.204 66.057,9.638C66.289,9.979 66.539,10.308 66.806,10.622C67.073,10.936 66.826,10.642 66.776,10.653C66.467,10.745 66.144,10.777 65.823,10.748C65.495,10.725 65.174,10.645 64.875,10.511C64.759,10.46 64.611,10.498 64.399,10.697C64.244,10.879 64.05,11.024 63.83,11.12C63.632,11.178 63.543,11.218 63.47,11.364C63.425,11.564 63.413,11.771 63.437,11.976C63.448,12.1 63.424,12.225 63.368,12.337C63.252,12.577 63.149,12.822 63.059,13.072C63.026,13.189 62.979,13.302 62.919,13.408C62.836,13.565 62.698,13.827 62.673,13.89C62.451,14.375 62.51,14.945 62.825,15.376C63.326,16.269 64.861,15.646 64.861,15.646C65.708,15.234 66.615,14.957 67.548,14.826C70.146,14.428 72.777,14.283 75.403,14.392C78.029,14.501 76.594,14.37 75.604,14.979C74.615,15.591 70.341,18.155 69.551,18.404C68.964,18.71 68.274,18.754 67.653,18.525C67.186,18.289 66.818,17.893 66.615,17.41C66.302,16.843 65.755,16.441 65.12,16.313C64.941,16.285 64.759,16.345 64.631,16.473C64.439,16.692 64.291,16.823 64.229,16.916C64.163,17.005 64.002,17.183 64.235,17.614C64.299,17.811 64.286,18.026 64.199,18.215C63.669,19.676 62.458,20.791 60.958,21.2C60.717,21.26 60.479,21.334 60.245,21.42C60.14,21.484 60.007,21.56 59.863,22.002C59.798,22.271 59.696,22.53 59.56,22.77C59.445,22.932 59.397,23.131 59.425,23.326C59.439,23.578 59.411,23.83 59.342,24.072C59.205,24.787 59.215,25.524 59.373,26.236C59.588,26.843 60.186,27.234 60.828,27.187C61.374,27.188 61.895,26.959 62.263,26.556C62.76,26.105 63.289,25.683 63.437,25.558C64.152,24.981 64.722,24.244 65.103,23.408C65.627,22.173 66.069,22.094 66.235,22.094C67.24,22.178 68.239,22.333 69.222,22.559C72.557,23.234 75.768,24.42 78.742,26.074C79.333,26.471 80.001,26.738 80.703,26.859C81.404,26.98 81.247,26.837 81.544,26.837C81.986,26.903 82.433,26.93 82.88,26.917C83.609,26.836 84.321,26.646 84.993,26.353C85.646,26.025 86.258,25.62 86.815,25.147C87.15,24.779 87.576,24.093 87.757,23.984C88.22,23.827 88.54,23.4 88.56,22.912C88.526,22.417 88.531,21.92 88.576,21.426C88.621,20.931 88.626,21.234 88.602,21.232M71.488,10.158C71.376,10.158 70.474,10.21 69.491,10.34C69.455,10.344 69.418,10.341 69.384,10.331C69.337,10.314 69.34,10.239 69.342,10.225C69.342,10.225 69.361,10.077 69.417,9.819C69.484,9.481 69.518,9.136 69.517,8.791C69.525,8.365 69.512,8.244 69.512,8.202C69.512,8.157 69.502,8.104 69.54,8.084C69.563,8.073 69.588,8.067 69.613,8.066C69.638,8.065 69.952,8.069 70.189,8.062C70.428,8.055 71.153,7.967 71.187,7.962C71.219,7.96 71.327,7.934 71.324,7.991C71.31,8.047 71.287,8.101 71.256,8.149L71.247,8.163C71.247,8.163 71.046,8.495 71.002,8.599C70.96,8.711 70.939,8.742 70.952,8.816C70.969,8.89 71.213,9.271 71.287,9.414C71.383,9.591 71.467,9.774 71.541,9.961C71.565,10.051 71.594,10.158 71.488,10.158M75.571,10.183C75.335,10.183 75.391,10.074 75.475,9.964C75.559,9.857 75.91,9.206 76.033,9.017C76.132,8.88 76.141,8.696 76.054,8.55C75.905,8.403 75.748,8.264 75.583,8.135C75.387,7.97 75.762,7.982 75.762,7.982C75.795,7.982 76.658,7.898 76.962,7.87C77.259,7.85 78.213,7.796 78.331,7.781C78.442,7.77 78.49,7.807 78.507,7.916C78.523,8.025 78.494,8.489 78.494,8.489C78.454,8.974 78.509,9.463 78.655,9.928C78.702,10.059 78.852,10.321 78.73,10.314C78.629,10.306 78.528,10.293 78.428,10.274C77.478,10.194 76.524,10.164 75.571,10.183" style="fill-rule:nonzero;"/>
    <path d="M128.105,4.046C127.529,4.095 127.891,4.618 125.058,4.204C125.058,4.204 124.64,4.202 124.821,4.024C125.002,3.849 125.77,3.23 125.837,2.891C125.905,2.556 125.77,2.468 125.587,2.264C125.114,1.787 124.561,1.395 123.954,1.107C123.677,1.014 123.379,1.009 123.099,1.091C122.858,1.173 122.621,1.27 122.39,1.38C122.327,1.418 122.299,1.506 122.31,1.71C122.398,2.089 122.37,2.486 122.229,2.848C122.019,3.271 121.75,3.66 121.429,4.006C121.277,4.103 121.091,4.134 120.916,4.09C120.727,4.086 120.152,4.097 120.025,4.082C119.899,4.068 119.836,3.996 119.913,3.674C119.991,3.353 120.399,2.734 120.347,2.401C120.299,2.067 120.137,1.795 119.412,1.418C118.916,1.198 118.408,1.007 117.89,0.848C117.487,0.62 116.987,0.642 116.605,0.904C116.45,1.126 116.219,1.284 115.956,1.347C115.608,1.445 115.363,1.76 115.354,2.121C115.387,2.249 115.629,2.603 115.704,2.774C115.82,3.139 115.872,3.521 115.856,3.904C115.811,4.177 115.546,4.077 115.439,4.082C115.328,4.088 112.817,4.037 111.29,4.181C110.541,4.294 109.781,4.301 109.03,4.202C108.747,4.139 108.477,4.029 108.231,3.876C108.211,3.862 108.188,3.854 108.164,3.854C108.118,3.854 108.077,3.882 108.059,3.924C107.907,4.206 107.727,4.472 107.522,4.719C107.312,5.06 107.13,5.419 106.98,5.792C106.935,5.843 106.826,5.751 106.764,5.704C106.705,5.646 105.633,4.815 105.063,4.465C104.495,4.12 103.28,3.454 103.038,3.233C102.843,3.109 102.679,2.942 102.558,2.745C102.381,2.441 102.187,2.22 102.046,2.223C101.848,2.26 101.658,2.336 101.489,2.446C101.357,2.537 100.666,2.898 100.49,3.003C100.255,3.176 100.069,3.405 99.949,3.67C99.809,4.004 99.719,4.357 99.682,4.717C99.607,5.197 99.557,5.681 99.535,6.167C99.535,6.441 99.542,6.77 99.513,7.056C99.479,7.341 99.608,7.359 99.818,7.521C100.022,7.705 100.278,7.822 100.551,7.854C100.763,7.815 100.967,7.744 101.156,7.643C101.502,7.504 101.886,7.494 102.239,7.614C102.949,7.946 103.719,8.128 104.502,8.149C105.633,8.144 105.654,7.967 105.768,7.88C105.882,7.788 106.033,7.404 106.179,7.247C106.383,7.068 106.576,6.878 106.758,6.677C106.904,6.473 106.775,7.151 106.74,7.271C106.705,7.395 106.489,7.86 106.687,8.186C106.889,8.573 107.276,8.831 107.71,8.871C107.97,8.881 108.224,8.792 108.421,8.623C109.061,8.257 109.766,8.019 110.497,7.923C112.151,7.672 113.823,7.552 115.496,7.566C115.61,7.568 115.725,7.576 115.839,7.592C115.894,7.608 115.89,7.624 115.898,7.811C115.923,8.054 115.913,8.299 115.867,8.539C115.804,8.626 115.783,8.652 115.552,8.652C115.321,8.652 113.749,8.554 112.95,8.612C111.957,8.646 110.972,8.793 110.012,9.051C109.575,9.275 109.574,9.392 109.419,9.786C109.265,10.066 108.978,10.247 108.659,10.267C108.591,10.267 108.456,10.274 108.318,10.533C108.178,10.795 108.153,10.974 108.038,10.963C107.925,10.952 107.162,10.693 106.845,10.655C105.962,10.493 105.062,10.436 104.165,10.485C102.872,10.58 102.774,10.566 102.561,10.464C102.294,10.324 102.043,10.155 101.812,9.961C101.591,9.778 101.311,9.997 101.24,10.099C101.112,10.335 100.907,10.519 100.658,10.62C100.104,10.792 99.717,11.301 99.698,11.881C99.786,12.421 99.824,12.967 99.811,13.514C99.745,13.952 99.44,14.976 99.837,15.263C100.066,15.496 100.406,15.584 100.719,15.489C101.035,15.407 101.923,14.795 102.325,14.624C102.762,14.41 103.238,14.292 103.724,14.275C104.432,14.233 105.744,14.196 105.882,14.161C106.022,14.127 106.648,14.119 106.667,13.538C106.667,13.538 106.675,13.342 107.068,13.153C107.557,12.967 107.949,12.587 108.15,12.103C108.351,11.62 108.266,11.921 108.355,12.175C108.438,12.425 108.42,12.391 108.522,12.482C108.624,12.577 108.687,12.617 108.703,12.92C108.81,13.583 108.84,14.257 108.792,14.928C108.66,15.396 108.59,15.566 108.095,15.678C106.183,16.093 104.333,16.754 102.59,17.643C102.024,17.941 101.399,18.11 100.76,18.138C100.122,18.167 100.026,18.215 99.931,18.331C99.839,18.455 99.722,18.478 99.712,19.088C99.761,19.642 99.744,20.199 99.661,20.749C99.207,21.576 98.945,22.495 98.895,23.437C98.964,24.263 99.233,25.059 99.68,25.757C99.846,25.999 100.555,26.999 101.253,26.837C101.861,26.764 102.378,26.353 102.586,25.777C102.912,25.091 103.385,24.833 103.604,24.199C103.826,23.565 103.42,23.41 103.469,22.763C103.511,22.114 103.974,22.023 104.393,21.626C104.816,21.236 105.25,21.08 105.482,20.872C106.044,20.362 106.473,19.723 106.73,19.009C107.164,18.435 107.761,18.004 108.443,17.772C109.125,17.541 108.611,17.672 108.619,17.849C108.566,19.131 108.314,20.396 107.874,21.601C107.424,22.649 106.532,23.446 105.439,23.774C104.347,24.102 105.048,23.841 104.955,24.15C104.863,24.458 104.802,24.392 105.089,24.684C105.377,24.971 106.068,25.945 106.288,26.094C106.598,26.341 106.949,26.53 107.326,26.652C107.969,26.949 108.687,27.041 109.384,26.917C110.227,26.524 110.819,25.732 110.954,24.811C111.209,23.886 111.402,22.945 111.532,21.994C111.581,21.735 111.783,21.808 111.957,21.792C113.118,21.702 114.284,21.673 115.448,21.703C115.909,21.792 115.769,21.867 115.786,22.224C115.802,22.578 115.736,25.5 115.798,25.802C115.858,26.105 115.989,26.925 116.656,26.899C117.116,26.91 117.577,26.896 118.036,26.86C118.412,26.732 118.748,26.508 119.01,26.211C119.341,25.907 119.521,25.471 119.5,25.022C119.489,24.339 119.403,22.558 119.448,22.246C119.494,21.93 119.554,21.896 119.902,21.878C120.249,21.863 122.863,21.912 123.234,21.973C123.614,22.029 123.796,22.042 123.8,22.464C123.791,23.435 123.873,24.405 124.046,25.361C124.238,25.846 124.583,26.754 124.909,26.846C125.285,26.985 125.709,26.91 126.015,26.652C126.486,26.301 126.861,25.838 127.106,25.305C127.144,24.907 127.128,24.505 127.059,24.111C126.943,23.087 126.9,22.055 126.932,21.025C126.93,18.781 126.831,14.337 126.964,13.574C127.101,12.818 127.063,12.834 127.53,12.318C127.865,11.914 127.899,11.335 127.615,10.894C127.478,10.721 127.366,10.529 127.282,10.325C127.152,9.753 126.735,9.286 126.181,9.094C126.006,9.033 125.815,9.04 125.644,9.112C125.309,9.29 124.924,9.351 124.551,9.285C123.991,9.224 121.563,8.984 119.971,8.929C119.855,8.943 119.736,8.928 119.627,8.885C119.471,8.816 119.486,8.809 119.491,8.567C119.494,8.323 119.499,7.942 119.525,7.691C119.55,7.439 119.807,7.571 120.155,7.568C120.504,7.566 122.074,7.607 122.814,7.701C123.842,7.778 124.851,8.014 125.807,8.399C126.493,8.8 127.261,7.869 127.372,7.745C127.559,7.545 127.674,7.289 127.7,7.016C127.759,6.612 128.103,6.025 128.168,5.66C128.235,5.293 128.143,4.975 128.214,4.735C128.287,4.498 128.683,3.995 128.105,4.046M115.78,17.89C115.745,17.958 115.7,17.949 115.599,17.954C115.498,17.959 113.805,18.069 113.709,18.073C113.709,18.073 112.617,18.152 112.333,18.164C112.15,18.187 111.965,18.186 111.783,18.16C111.733,18.128 111.716,18.087 111.715,17.938C111.715,17.788 111.742,17.229 111.728,17.093C111.715,16.956 111.837,16.965 111.926,16.957C112.018,16.951 112.581,16.908 112.969,16.837C113.732,16.779 114.498,16.776 115.262,16.83C115.566,16.867 115.615,16.845 115.73,16.939C115.73,16.939 115.775,16.983 115.777,17.295C115.797,17.493 115.798,17.692 115.78,17.89M115.851,13.361C115.85,13.503 115.702,13.51 115.599,13.508C115.499,13.503 113.586,13.579 113.402,13.587C113.402,13.587 112.219,13.66 111.923,13.687C111.626,13.709 111.652,13.663 111.648,13.441C111.613,13.198 111.624,12.951 111.678,12.712C111.762,12.557 111.987,12.351 113.15,12.191C113.963,12.09 114.783,12.071 115.599,12.133C115.736,12.151 115.916,12.114 115.899,12.482C115.885,12.851 115.853,13.224 115.851,13.361M119.521,12.457C119.539,12.349 119.636,12.27 119.746,12.275C119.865,12.268 121.043,12.304 121.25,12.293C122.05,12.316 122.847,12.421 123.626,12.606C124.405,12.792 123.903,12.696 123.922,12.938C123.945,13.163 123.932,13.391 123.882,13.612C123.841,13.687 123.838,13.681 123.78,13.693C123.721,13.696 123.105,13.703 122.856,13.7C122.605,13.696 121.808,13.678 120.731,13.583C119.654,13.492 119.638,13.499 119.638,13.499C119.614,13.505 119.588,13.501 119.568,13.487C119.536,13.358 119.52,13.226 119.521,13.093C119.504,12.881 119.504,12.669 119.521,12.457M119.751,16.841C120.04,16.827 121.323,16.834 121.886,16.896C122.449,16.956 123.329,17.008 123.55,17.012C123.772,17.012 123.738,17.18 123.738,17.238C123.741,17.291 123.798,17.908 123.784,18.011C123.768,18.104 123.783,18.201 123.608,18.191C123.431,18.186 121.924,18.087 121.88,18.082C121.88,18.082 120.583,18.011 120.15,18.024C119.716,18.04 119.445,18.128 119.428,17.854C119.395,17.564 119.383,17.271 119.393,16.979C119.425,16.855 119.459,16.855 119.751,16.841" style="fill-rule:nonzero;"/>
    <path d="M164.548,2.991C158.142,2.679 151.722,2.751 145.324,3.207C144.989,3.238 144.651,3.242 144.315,3.219C143.991,3.17 143.431,2.902 143.248,2.916C142.535,3.131 141.969,3.677 141.728,4.381C141.692,4.678 141.635,4.971 141.557,5.259C141.478,5.601 141.375,5.935 141.247,6.261C141.154,6.463 141.12,6.688 141.149,6.908C141.181,7.501 141.305,8.086 141.517,8.641C141.717,8.885 141.954,9.254 142.727,8.733C142.939,8.558 143.181,8.424 143.441,8.335C145.38,7.941 147.351,7.719 149.33,7.672C149.682,7.639 150.036,7.626 150.39,7.632C150.687,7.669 150.921,7.908 150.952,8.206C150.962,8.602 151.305,20.181 151.221,20.321C151.129,20.458 150.551,20.46 149.916,20.474C149.282,20.492 145.019,20.795 143.743,20.938C143.3,20.913 142.861,20.839 142.435,20.715C142.005,20.533 141.505,20.625 141.167,20.948C140.782,21.459 140.358,21.939 139.899,22.384C139.573,22.634 139.403,22.624 139.336,23.387C139.204,24.074 139.254,24.784 139.483,25.445C139.756,25.953 139.807,26.262 139.953,26.484C140.094,26.706 140.438,27.03 140.679,26.994C140.922,26.956 141.561,26.466 141.834,26.368C142.111,26.295 142.392,26.237 142.676,26.193C142.952,26.127 143.32,25.857 143.637,25.757C146.715,25.247 149.829,24.997 152.949,25.012C157.53,25.034 161.742,25.128 162.635,25.576C163.528,26.021 164.027,27.012 164.887,26.272C165.493,25.607 166.182,25.022 166.936,24.53C167.491,24.285 167.846,23.727 167.832,23.12C167.791,22.111 167.744,22.55 167.85,22.134C168.071,21.697 168.08,21.182 167.875,20.737C167.67,20.292 167.781,20.635 167.944,20.081C167.944,20.081 168.021,20.004 167.766,20.07C166.909,20.364 166.023,20.566 165.124,20.675C164.245,20.701 161.039,20.489 159.227,20.46C158.056,20.505 156.883,20.478 155.714,20.38C155.529,20.262 155.59,20.289 155.583,19.942C155.572,19.592 155.419,8.915 155.521,8.456C155.62,7.997 155.583,7.599 156.673,7.57C158.759,7.547 160.844,7.66 162.915,7.909C163.01,7.928 163.107,7.938 163.204,7.938C163.926,7.938 164.541,7.391 164.625,6.673C164.79,6.203 164.994,5.747 165.234,5.31C165.495,4.928 165.411,4.429 165.495,4.06C165.579,3.696 165.922,3.459 165.834,3.224C165.747,2.991 164.741,2.985 164.548,2.991" style="fill-rule:nonzero;"/>
    <path d="M207.026,5.048C206.898,4.855 206.804,4.91 206.691,4.937C206.531,4.959 206.372,4.994 206.217,5.041C206.006,5.176 205.766,5.259 205.517,5.285C205.19,5.285 204.296,5.109 203.892,5.056C203.488,5.005 202.748,4.933 202.649,4.936C202.649,4.936 202.551,4.972 202.631,4.829C202.752,4.613 202.899,4.413 203.068,4.232C203.181,4.159 203.903,3.965 203.896,3.485C203.881,3.008 203.714,2.887 203.714,2.887C203.714,2.887 203.174,2.468 203.007,2.297C202.839,2.129 202.806,2 202.595,1.888C202.313,1.687 201.959,1.614 201.621,1.688C201.18,1.873 200.801,2.183 200.532,2.579C200.189,3.026 199.052,4.535 198.972,4.618C198.899,4.702 198.899,4.699 198.772,4.702C198.648,4.706 197.337,4.676 197.274,4.673C197.215,4.669 197.209,4.699 197.19,4.567C197.164,4.105 197.253,3.643 197.449,3.224C197.736,2.672 197.802,2.401 197.606,2.023C197.369,1.837 197.106,1.688 196.826,1.579C196.447,1.455 196.151,1.438 195.911,1.357C195.415,1.06 194.807,1.016 194.275,1.24C193.422,1.601 193.44,1.825 193.549,2.428C193.62,2.643 193.712,2.85 193.823,3.047C193.93,3.504 193.93,3.979 193.823,4.436C193.794,4.494 193.87,4.545 193.662,4.551C193.455,4.56 191.789,4.75 190.806,4.718C190.806,4.718 190.696,4.732 190.649,4.496C190.578,4.095 190.581,3.683 190.659,3.283C190.762,2.989 190.973,2.847 190.999,2.661C190.979,2.477 190.889,2.307 190.747,2.187C190.255,1.888 189.737,1.635 189.198,1.429C188.633,1.233 187.945,0.967 187.471,1.333C187.001,1.699 186.742,2.283 186.905,2.627C187.07,2.967 187.398,2.98 187.38,4.37C187.38,4.37 187.416,4.88 187.296,4.91C187.187,4.926 187.078,4.932 186.968,4.928C186.858,4.924 185.838,5.095 185.674,5.074C185.503,5.056 185.543,5.143 185.405,4.888C185.001,4.085 184.514,3.327 183.95,2.627C183.48,2.278 182.884,2.143 182.31,2.257C182.133,2.323 181.973,2.427 181.841,2.562C181.505,2.822 181.2,3.12 180.933,3.45C180.897,3.602 180.889,3.638 181.297,4.057C181.67,4.424 181.964,4.863 182.161,5.347C182.359,5.831 181.195,5.482 180.901,5.52C180.484,5.613 180.049,5.586 179.647,5.442C179.245,5.298 179.475,5.369 179.402,5.478C179.279,5.683 179.144,5.88 178.998,6.069C178.564,6.721 178.277,7.46 178.156,8.234C178.12,8.926 178.014,9.535 178.743,9.79C179.472,10.05 179.617,9.509 181.428,9.141C183.254,8.769 185.488,8.35 186.323,8.291C187.157,8.234 186.91,8.226 187.219,8.729C187.532,9.232 187.634,9.327 187.657,9.467C187.679,9.607 187.562,9.567 187.365,9.592C187.172,9.618 184.96,9.844 184.351,9.903C184.019,9.926 183.686,9.903 183.36,9.833C183.168,9.868 182.984,9.942 182.821,10.05C182.693,10.128 182.657,10.132 182.588,10.227C182.519,10.335 182.488,10.462 182.501,10.59C182.445,10.856 182.346,11.111 182.208,11.345C182.052,11.575 181.979,11.852 182.004,12.129C182.11,12.38 182.193,12.64 182.252,12.905C182.263,13.108 182.252,13.452 182.595,13.444C183.028,13.376 183.457,13.28 183.878,13.157C184.169,13.114 188.313,12.767 189.388,12.734C190.463,12.701 190.649,12.603 190.638,12.929C190.631,13.259 190.631,13.477 190.557,13.554C190.484,13.637 190.292,13.642 190.109,13.656C189.931,13.669 187.519,13.815 186.99,13.831C186.458,13.853 184.392,14.053 184.162,14.075C183.932,14.097 183.593,14.081 183.521,14.112C183.319,14.204 183.169,14.382 183.112,14.596C182.984,14.956 182.755,15.034 182.66,15.155C182.512,15.487 182.413,15.838 182.365,16.198C182.351,16.447 182.3,17.086 182.686,17.184C183.065,17.282 183.452,17.056 183.928,17.025C186.038,16.776 188.165,16.699 190.288,16.794C192.41,16.889 190.587,16.769 190.598,16.889C190.636,17.126 190.632,17.367 190.586,17.603C190.535,17.688 190.445,17.743 190.346,17.75C190.284,17.75 188.309,17.787 187.42,17.842C186.534,17.9 184.584,18.078 183.928,18.07C183.288,18.128 182.653,18.228 182.026,18.372C181.592,18.343 181.161,18.273 180.74,18.164C180.591,18.127 180.477,18.044 180.306,18.155C180.135,18.262 179.679,18.503 179.603,18.733C179.571,18.947 179.501,19.154 179.395,19.343C179.113,19.64 178.926,20.014 178.859,20.418C178.861,20.882 178.828,21.346 178.761,21.805C178.681,22.272 178.714,22.3 179.086,22.624C179.45,22.942 179.537,23 179.603,22.999C179.822,22.99 180.04,22.963 180.255,22.92C180.361,22.88 180.864,22.553 181.046,22.472C182.547,21.842 184.124,21.413 185.736,21.197C187.349,20.98 185.929,21.248 185.82,21.36C184.993,22.18 183.986,22.795 182.879,23.157C182.682,23.185 182.482,23.188 182.285,23.164C181.918,23.184 181.563,23.302 181.257,23.507C180.953,23.678 180.674,23.891 180.43,24.141C180.331,24.321 180.244,24.363 180.39,24.593C180.608,24.91 180.803,25.241 180.976,25.584C181.361,26.236 181.92,26.767 182.591,27.116C182.76,27.213 182.957,27.249 183.149,27.217C183.533,27.114 183.903,26.964 184.249,26.769C184.852,26.401 185.389,25.935 185.838,25.391C186.732,24.085 187.5,22.696 188.13,21.244C188.761,19.792 188.178,21.028 188.495,20.994C188.812,20.958 190.284,20.973 190.372,20.992C190.456,21.014 190.503,21.005 190.496,21.276C190.385,22.536 190.389,23.802 190.507,25.061C190.729,25.97 190.893,26.45 191.137,26.637C191.431,26.924 191.802,27.118 192.205,27.195C192.742,27.03 193.219,26.711 193.575,26.276C193.77,25.885 193.906,25.468 193.98,25.037C194.024,24.611 194.005,21.672 194.082,21.088C194.082,21.088 194.056,20.877 194.344,20.874C194.635,20.872 195.904,20.887 196.483,20.945C196.483,20.945 196.713,20.938 196.567,21.094C196.426,21.244 196.309,21.415 196.221,21.601C195.997,21.899 195.994,22.312 196.213,22.614C196.351,22.746 196.508,22.856 196.68,22.938C197.385,23.501 198.05,24.112 198.669,24.768C199.526,25.584 200.47,26.455 200.725,26.692C200.959,27.004 201.38,27.117 201.738,26.963C202.088,26.765 202.465,26.62 202.857,26.531C203.335,26.42 203.77,26.167 204.103,25.806C204.282,25.58 204.621,25.4 204.829,25.074C205.077,24.623 205.281,24.15 205.437,23.66C205.448,23.536 205.342,23.601 205.306,23.605C204.939,23.574 204.577,23.5 204.227,23.387C203.681,23.211 202.219,22.767 201.983,22.688C201.652,22.544 201.339,22.362 201.049,22.147C200.823,21.985 200.164,21.493 199.993,21.387C199.821,21.28 199.97,21.218 200.131,21.282C200.284,21.346 201.45,21.681 202.117,21.845C202.644,22.07 203.234,22.102 203.783,21.936C204.391,21.706 204.453,21.539 204.512,21.444C204.769,20.924 205.118,20.455 205.542,20.059C205.967,19.664 205.765,19.855 205.787,19.764C205.802,19.67 205.772,19.538 206.192,18.966C206.6,18.396 206.224,18.131 206.184,18.091C206.144,18.053 205.831,17.738 205.758,17.676C205.696,17.612 205.565,17.592 205.248,17.655C204.457,17.824 203.651,17.913 202.842,17.921C201.811,17.917 198.185,17.818 197.354,17.785C196.523,17.746 195.532,17.738 194.88,17.703C194.228,17.667 194.103,17.785 194.121,17.275C194.139,16.765 194.005,16.459 194.475,16.494C194.938,16.528 197.934,16.704 198.163,16.718C198.549,16.797 198.951,16.714 199.274,16.49C199.988,15.943 200.52,15.194 200.802,14.341C201.084,13.488 200.911,13.82 200.682,13.725C200.308,13.647 199.924,13.625 199.544,13.66C199.267,13.669 195.918,13.719 194.395,13.616C194.395,13.616 194.129,13.687 194.133,13.375C194.139,13.066 194.129,12.636 194.369,12.628C195.925,12.655 197.477,12.77 199.019,12.974C199.213,13.049 199.427,13.049 199.621,12.974C199.825,12.867 200.048,12.797 200.277,12.768C200.494,12.654 200.686,12.495 200.839,12.302C201.345,11.804 201.775,11.234 202.114,10.609C202.154,10.26 202.114,10.183 202.143,10.094C202.168,10.002 201.57,9.857 201.57,9.857C201.57,9.857 198.557,9.491 197.256,9.492C197.256,9.492 196.866,9.639 197.099,9.17C197.336,8.694 197.533,8.293 197.584,8.237C197.635,8.183 197.726,8.142 198.098,8.15C198.469,8.157 199.836,8.357 200.116,8.365C200.531,8.321 200.951,8.359 201.352,8.477C201.896,8.702 202.473,8.837 203.061,8.875C203.515,8.999 203.98,9.077 204.45,9.108C204.756,9.065 205.003,8.941 205.346,8.419C205.692,7.896 206.217,6.947 206.414,6.732C206.59,6.602 206.674,6.38 206.629,6.167C206.618,5.866 206.946,5.522 207.008,5.428C207.112,5.326 207.12,5.159 207.026,5.048M194.297,8.228C194.246,8.332 194.012,8.847 193.961,8.988C193.903,9.126 193.892,9.399 193.656,9.374C193.415,9.348 191.506,9.399 191.221,9.413C190.933,9.417 190.958,9.396 190.893,9.33C190.82,9.265 190.561,8.494 190.452,8.299C190.346,8.104 190.437,8.13 190.608,8.116C190.783,8.106 192.088,8.084 192.088,8.084C192.252,8.077 193.961,8.007 194.18,8.023C194.399,8.04 194.348,8.122 194.297,8.228" style="fill-rule:nonzero;"/>
    <path d="M230.098,6.947C230.098,6.947 224.851,7.359 224.249,7.424C224.046,7.437 223.844,7.46 223.644,7.495C223.509,7.53 223.029,7.741 222.806,7.778C222.48,7.808 222.152,7.808 221.826,7.778C221.687,7.763 221.691,7.821 221.596,7.89C221.308,8.05 221.064,8.278 220.885,8.554C220.641,8.962 220.36,9.509 220.244,9.702C219.974,10.04 219.787,10.437 219.701,10.861C219.546,11.461 219.527,12.088 219.647,12.696C219.803,12.841 220.226,13.025 220.368,13.178C220.503,13.331 220.743,13.681 220.973,13.729C221.232,13.749 221.491,13.686 221.712,13.55C221.986,13.426 221.924,13.543 222.216,13.295C222.88,12.63 223.737,12.193 224.665,12.045C226.512,11.699 228.386,11.517 230.266,11.5C232.145,11.483 230.649,11.444 230.46,12.002C230.098,12.92 229.657,13.806 229.14,14.647C228.324,15.858 227.437,17.02 226.483,18.127C225.573,19.026 224.553,19.806 223.448,20.449C222.106,21.139 220.676,21.64 219.198,21.94C217.72,22.239 218.561,21.94 218.505,21.958C218.424,21.961 218.357,22.023 218.346,22.104C218.316,22.234 218.251,22.657 218.375,22.726C218.692,22.875 218.941,23.138 219.071,23.463C219.131,23.832 219.36,24.153 219.69,24.33C220.02,24.507 220.226,24.833 220.427,25.012C220.619,25.19 220.966,25.468 221.111,25.57C221.262,25.681 221.385,25.827 221.469,25.996C221.505,26.105 221.655,26.575 221.892,26.611C222.069,26.664 222.227,26.769 222.343,26.914C222.498,27.065 222.7,27.16 222.915,27.183C223.283,27.229 223.633,27.303 223.786,27.336C224.007,27.371 224.233,27.343 224.438,27.256C224.684,27.187 224.913,27.07 225.113,26.91C225.23,26.764 225.273,26.582 225.346,26.495C225.886,26.111 226.365,25.648 226.767,25.121C228.136,23.417 229.403,21.633 230.561,19.778C231.399,18.145 231.851,17.891 232.638,16.174C232.638,16.174 232.704,16.001 232.832,16.16C232.97,16.313 234.355,18.062 234.566,18.448C234.781,18.838 236.079,20.436 236.472,20.963C236.869,21.493 239.166,24.491 239.264,24.649C239.362,24.808 240.175,26.002 240.332,26.148C240.496,26.291 241.013,26.4 241.097,26.478C241.345,26.737 241.66,26.922 242.008,27.012C242.824,27.242 243.686,27.261 244.511,27.067C245.481,26.746 246.064,26.564 246.243,26.01C246.401,25.75 246.604,25.52 246.844,25.332C247.117,24.721 247.319,24.08 247.446,23.423C247.406,22.953 247.44,22.48 247.547,22.021C247.633,21.803 247.645,21.563 247.58,21.338C247.342,21.455 247.096,21.555 246.844,21.637C246.109,21.996 245.248,21.997 244.511,21.641C242.914,20.914 241.513,19.816 240.426,18.438C238.494,16.287 235.835,13.448 235.23,11.856C235.23,11.856 235.094,11.583 235.452,11.593C238.006,11.59 240.548,11.939 243.006,12.632C243.342,12.853 243.796,12.785 244.052,12.475C244.696,11.779 245.244,11 245.681,10.158C245.783,9.627 245.963,9.113 246.217,8.636C246.362,8.346 246.387,8.009 246.286,7.701C245.963,7.587 245.618,7.545 245.276,7.577C244.566,7.599 239.391,6.907 236.089,7.005C236.089,7.005 235.189,7.082 235.149,6.98C234.975,6.043 235.169,5.073 235.692,4.276C235.905,3.974 235.876,3.559 235.623,3.289C235.285,2.87 234.899,2.493 234.471,2.166C234.021,2.072 233.579,1.943 233.149,1.779C232.41,1.497 231.576,1.601 230.929,2.056C229.88,2.656 230.116,3.124 230.102,3.146C230.218,3.554 230.367,3.953 230.547,4.337C230.874,5.148 230.962,6.037 230.798,6.896L230.098,6.947Z" style="fill-rule:nonzero;"/>
    <path d="M286.884,12.382C286.971,12.237 287.419,11.699 287.296,11.367C287.172,11.028 287.095,10.777 285.849,9.913C285.849,9.913 285.407,9.534 285.065,9.651C284.785,9.713 284.53,9.859 284.336,10.07C284.123,10.14 283.892,10.137 283.68,10.061C283.468,9.985 283.589,10.125 283.673,9.752C283.761,9.377 284.348,6.353 284.34,5.781C284.317,4.868 284.548,3.968 285.007,3.179C285.184,2.956 285.182,2.638 285.003,2.417C284.542,1.814 284.026,1.254 283.462,0.745C283.298,0.666 283.196,0.533 282.475,0.839C282.358,0.874 282.234,0.869 282.121,0.826C281.021,0.635 279.899,0.615 278.794,0.766C278.466,0.769 278.138,0.739 277.817,0.675C277.347,0.577 277.255,1.2 277.259,1.244C277.197,1.562 277.092,1.871 276.949,2.162C276.771,2.461 276.84,3.087 277.128,3.11C277.412,3.133 278.516,3.033 279.679,3.036C280.838,3.041 281.498,2.997 281.644,3.45C281.792,3.9 281.02,3.941 280.361,3.889C279.697,3.837 278.462,3.687 277.864,3.696C277.497,3.664 277.148,3.875 277.007,4.215C276.784,4.591 276.723,5.042 276.84,5.464C276.957,5.885 276.873,5.707 277.667,5.577C278.337,5.478 279.017,5.468 279.69,5.546C280.144,5.574 280.595,5.629 281.042,5.712C281.183,5.78 281.269,5.927 281.261,6.083C281.243,6.289 281.174,6.455 281.005,6.477C280.83,6.493 279.249,6.355 278.804,6.327C278.36,6.301 277.391,6.152 277.226,6.296C276.857,6.703 276.606,7.203 276.501,7.742C276.395,8.28 274.952,7.1 274.92,7.026C274.891,6.956 274.799,6.905 275.083,6.801C275.375,6.7 275.834,6.672 275.947,6.588C276.06,6.506 276.304,6.214 275.929,5.674C275.828,5.557 275.704,5.461 275.565,5.393C275.419,5.365 275.014,5.321 275.353,5.183C275.696,5.041 276.264,4.774 276.345,4.312C276.345,4.312 276.37,4.121 275.958,3.849C275.498,3.58 275.052,3.288 274.621,2.975C274.595,2.891 274.748,2.738 274.971,2.687C275.193,2.632 275.714,2.617 275.911,2.215C276.111,1.814 275.714,1.323 275.612,1.134C275.418,0.683 274.938,0.42 274.453,0.5C273.762,0.751 273.116,1.11 272.536,1.562C272.42,1.626 272.445,1.666 272.222,1.575C271.786,1.354 271.328,1.178 270.856,1.048C270.63,1.065 270.124,1.258 270.153,1.617C270.19,1.975 270.925,2.441 271.002,2.566C271.082,2.691 271.039,2.727 270.966,2.807C270.885,2.891 268.987,4.334 268.921,4.381C268.863,4.429 268.826,4.508 268.782,4.352C268.731,4.111 268.522,3.934 268.276,3.924C266.949,3.809 265.614,3.859 264.3,4.071C262.986,4.284 264.001,4.126 263.958,4.028C263.917,3.926 263.859,3.557 264.041,3.437C265.321,3.253 266.611,3.153 267.904,3.138C268.137,3.17 268.375,3.145 268.596,3.066C268.972,2.675 269.196,2.162 269.227,1.621C269.258,1.079 269.278,1.211 269.07,1.116C268.333,0.926 267.573,0.836 266.811,0.848C266.049,0.86 264.661,1.163 263.94,1.178C263.742,1.199 263.543,1.199 263.345,1.178C263.166,1.145 262.788,0.934 262.598,0.912C262.227,1.03 261.878,1.209 261.566,1.442C261.348,1.582 260.375,2.105 260.226,3.008C260.239,3.22 260.322,3.423 260.462,3.583C260.841,4.366 261.011,5.234 260.955,6.101C260.958,7.194 261.075,8.283 261.305,9.351C261.476,9.732 261.381,10.041 261.195,10.14C260.917,10.28 260.589,10.281 260.31,10.143C259.862,9.979 259.781,9.917 259.599,10.045C259.42,10.173 259.162,10.357 259.162,10.357C258.873,10.58 258.604,10.827 258.356,11.094C258.261,11.256 258.097,11.451 258.418,12.018C258.518,12.271 258.546,12.547 258.498,12.814C258.32,13.396 258.261,14.009 258.324,14.614C258.459,15.048 258.529,15.5 258.531,15.954C258.542,16.615 258.337,17.295 259.34,17.358C260.083,17.357 260.794,17.055 261.312,16.522C261.573,15.937 261.606,15.275 261.403,14.667C261.166,13.521 261.578,13.457 261.818,13.427C262.063,13.401 265.288,12.908 265.823,12.857C266.359,12.811 275.142,11.607 282.5,13.107C282.923,13.154 283.34,13.249 283.743,13.388C283.874,13.51 283.91,13.51 283.917,13.89C283.917,14.276 283.768,15.606 283.815,15.905C283.866,16.203 284.041,17.322 284.617,17.528C285.197,17.737 285.506,17.941 285.878,17.745C286.25,17.548 286.785,17.067 286.829,16.668C286.909,15.365 286.901,14.058 286.804,12.755C286.798,12.626 286.826,12.498 286.884,12.382M271.202,5.117C271.392,4.999 272.507,4.202 272.569,4.126C272.612,4.084 272.669,4.061 272.729,4.061C272.805,4.063 272.878,4.087 272.94,4.13C273.353,4.413 273.731,4.743 274.067,5.114C274.403,5.484 274.111,5.177 274.096,5.214C274.081,5.254 272.912,5.865 272.744,5.985C272.744,5.985 271.662,5.438 271.446,5.365L271.173,5.268C271.173,5.268 271.009,5.24 271.202,5.117M268.59,9.257C268.396,9.489 268.494,9.374 268.122,9.406C268.122,9.406 265.328,9.508 264.679,9.611C264.019,9.711 264.29,8.918 264.322,8.882C264.354,8.847 264.416,8.658 264.909,8.651C265.443,8.656 265.977,8.589 266.494,8.452C266.91,8.382 267.332,8.348 267.755,8.35C268.24,8.266 268.538,8.397 268.844,7.099C268.844,7.099 268.954,6.747 268.856,6.672C268.522,6.51 268.165,6.4 267.798,6.346C267.562,6.35 266.166,6.462 265.688,6.513C265.182,6.578 264.67,6.589 264.162,6.548C263.976,6.492 264.034,6.152 264.206,6.006C264.373,5.863 264.311,5.857 264.439,5.855C264.563,5.85 265.514,5.879 266.06,5.843C266.694,5.768 267.332,5.748 267.969,5.784C268.655,5.85 268.702,5.154 268.75,5.106C268.793,5.059 268.808,5.077 268.863,5.124C269.189,5.433 269.608,5.627 270.054,5.674C270.501,5.722 270.109,5.686 270.025,5.799C269.934,5.921 269.901,5.988 270.19,6.196C270.481,6.403 271.031,6.881 271.18,6.956C271.326,7.028 271.213,7.118 271.184,7.136C271.159,7.154 269.999,7.901 269.894,7.991C269.785,8.078 268.786,9.026 268.59,9.257M274.285,9.323C274.019,9.327 270.9,9.374 270.772,9.33C270.772,9.33 270.481,9.367 270.765,9.196C271.377,8.929 271.964,8.61 272.521,8.244C273.079,7.878 272.693,8.054 273.028,8.227C273.523,8.445 273.978,8.743 274.377,9.108C274.775,9.473 274.562,9.319 274.285,9.323M280.838,9.439C280.757,9.486 280.665,9.51 280.572,9.508C280.488,9.512 275.896,9.294 275.896,9.294C275.896,9.294 275.663,9.323 275.878,9.108C276.161,8.824 276.417,8.514 276.644,8.182C276.68,8.066 276.709,8.122 276.825,8.144C277.242,8.265 277.674,8.323 278.108,8.315C278.749,8.295 280.244,8.404 280.394,8.423C280.535,8.441 280.962,8.393 280.965,8.751C280.973,9.106 280.933,9.381 280.838,9.439" style="fill-rule:nonzero;"/>
    <path d="M284.055,19.089C281.822,18.678 279.562,18.435 277.292,18.362C275.023,18.289 277.033,18.375 276.967,18.317C276.902,18.254 277.208,18.219 277.598,17.978C278.466,17.5 279.249,16.883 279.916,16.151C280.004,16.03 280.051,15.884 280.051,15.735C280.051,15.401 279.814,15.111 279.486,15.045C277.942,14.697 276.37,14.492 274.789,14.432C272.412,14.318 270.029,14.445 267.678,14.811C265.513,15.292 265.43,15.784 265.4,15.912C265.35,16.254 265.271,16.592 265.163,16.921C265.022,17.231 265.007,17.836 265.867,17.723C266.316,17.624 266.784,17.65 267.219,17.8C267.504,17.869 268.363,18.033 268.363,18.033C268.363,18.033 268.917,18.295 268.677,18.342C268.437,18.383 268.414,18.35 267.649,18.411C266.877,18.474 264.442,18.814 263.75,18.834C263.213,18.848 262.676,18.823 262.143,18.758C261.949,18.726 261.643,18.864 261.472,19.279C261.344,19.7 261.187,20.111 261.002,20.509C260.801,20.824 260.233,21.506 260.67,21.956C260.779,22.123 260.952,22.237 261.148,22.271C261.665,22.325 262.187,22.326 262.704,22.275C264.355,21.908 266.025,21.639 267.708,21.469C270.037,21.295 270.648,21.287 270.714,21.293C270.787,21.296 270.823,21.32 270.827,21.484C270.841,21.655 271.104,23.2 270.437,23.583C269.334,24.26 268.021,24.512 266.745,24.293C264.763,24.05 264.883,24.026 264.318,23.674C263.754,23.326 263.433,23.04 263.378,23.04C263.323,23.043 262.9,23.663 262.714,23.82C262.529,23.973 262.492,24.045 262.5,24.191C262.501,24.398 262.459,24.603 262.376,24.793C262.281,24.993 262.558,25.132 262.671,25.234C262.946,25.443 263.169,25.712 263.323,26.021C263.451,26.397 263.64,26.407 263.972,26.527C264.662,26.774 265.321,27.1 265.936,27.497C266.612,27.841 267.38,27.963 268.13,27.846C268.777,27.881 269.421,27.966 270.055,28.1C271.242,28.255 272.431,27.793 273.203,26.877C273.393,26.674 273.602,26.489 273.826,26.323C274.186,25.696 274.346,24.974 274.285,24.254C274.193,23.308 274.154,22.358 274.168,21.407C274.183,20.457 274.117,21.103 274.617,21.137C275.895,21.215 277.166,21.389 278.419,21.657C279.678,22.001 280.975,22.187 282.281,22.211C282.804,22.101 283.253,21.764 283.506,21.293C283.833,20.813 284.366,19.833 284.544,19.508C284.726,19.179 284.282,19.117 284.055,19.089M274.103,17.92C273.708,18.168 273.291,18.379 272.857,18.55C272.139,18.883 272.172,18.893 271.629,18.667C271.336,18.57 271.082,18.382 270.904,18.131C270.719,17.999 270.527,17.879 270.328,17.77C270.098,17.621 270.546,17.548 270.546,17.548C270.587,17.541 270.951,17.475 271.129,17.459C271.308,17.446 273.119,17.457 273.386,17.45C273.612,17.462 273.831,17.533 274.023,17.654C274.074,17.698 274.271,17.778 274.103,17.92" style="fill-rule:nonzero;"/>
    <path d="M64.853,38.915C64.325,38.643 63.74,38.502 63.147,38.504C62.176,38.504 61.74,39.027 61.74,39.562C61.74,40.247 62.213,40.558 63.384,41.094C64.915,41.778 65.6,42.663 65.6,43.921C65.6,45.589 64.342,46.809 62.114,46.809C61.298,46.821 60.491,46.637 59.76,46.273L60.121,44.729C60.754,45.079 61.465,45.263 62.188,45.264C63.209,45.264 63.745,44.779 63.745,44.069C63.745,43.385 63.284,42.973 62.226,42.513C60.781,41.89 59.885,40.994 59.885,39.749C59.885,38.18 61.117,36.972 63.184,36.972C63.893,36.959 64.596,37.108 65.239,37.408L64.853,38.915Z" style="fill-rule:nonzero;"/>
    <path d="M73.956,46.684L72.113,46.684L72.113,42.563L68.851,42.563L68.851,46.684L67.008,46.684L67.008,37.109L68.851,37.109L68.851,40.932L72.113,40.932L72.113,37.109L73.956,37.109L73.956,46.684Z" style="fill-rule:nonzero;"/>
    <rect x="75.825" y="37.109" width="1.843" height="9.575" style="fill-rule:nonzero;"/>
    <path d="M84.005,41.567C85.102,41.801 85.888,42.786 85.873,43.908C85.876,44.657 85.559,45.374 85.002,45.875C84.008,46.581 82.79,46.9 81.578,46.771C80.895,46.776 80.213,46.735 79.536,46.647L79.536,37.234C80.337,37.095 81.15,37.029 81.964,37.035C82.885,36.957 83.809,37.171 84.603,37.645C85.201,38.048 85.554,38.729 85.537,39.45C85.528,40.396 84.907,41.233 84.006,41.517L84.005,41.567ZM82.038,41.007C83.084,41.007 83.707,40.446 83.707,39.662C83.707,38.716 82.997,38.404 82.175,38.404C81.904,38.396 81.633,38.417 81.366,38.467L81.366,41.007L82.038,41.007ZM81.366,45.34C81.609,45.38 81.855,45.396 82.1,45.389C83.097,45.389 83.943,44.941 83.943,43.858C83.943,42.75 82.997,42.351 82.051,42.351L81.366,42.351L81.366,45.34Z" style="fill-rule:nonzero;"/>
    <path d="M94.329,46.684L92.399,46.684L91.714,44.157L89.149,44.157L88.489,46.684L86.621,46.684L89.336,37.109L91.652,37.109L94.329,46.684ZM91.453,42.763L90.88,40.583C90.73,39.985 90.568,39.214 90.444,38.629L90.407,38.629C90.282,39.226 90.12,40.011 89.983,40.571L89.411,42.763L91.453,42.763Z" style="fill-rule:nonzero;"/>
    <path d="M102.423,42.713C102.423,45.514 101.091,46.821 98.924,46.821C96.77,46.821 95.55,45.539 95.55,42.725L95.55,37.097L97.393,37.097L97.393,42.887C97.393,44.567 98.028,45.302 98.974,45.302C99.97,45.302 100.58,44.592 100.58,42.887L100.58,37.097L102.423,37.097L102.423,42.713Z" style="fill-rule:nonzero;"/>
    <path d="M108.737,42.165C109.454,42.532 109.934,43.243 110.007,44.045C110.185,44.939 110.422,45.821 110.717,46.684L108.824,46.684C108.552,45.951 108.351,45.192 108.227,44.419C107.978,43.185 107.592,42.8 106.72,42.8L106.098,42.8L106.098,46.684L104.267,46.684L104.267,37.234C105.082,37.1 105.907,37.033 106.733,37.035C107.94,37.035 110.381,37.184 110.381,39.749C110.383,40.805 109.726,41.756 108.737,42.128L108.737,42.165ZM106.857,41.43C106.917,41.438 106.978,41.442 107.039,41.442C107.862,41.442 108.538,40.765 108.538,39.942C108.538,39.932 108.538,39.921 108.538,39.911C108.54,39.881 108.541,39.852 108.541,39.822C108.541,39.057 107.911,38.428 107.146,38.428C107.079,38.428 107.011,38.432 106.944,38.442C106.66,38.429 106.375,38.454 106.098,38.516L106.098,41.43L106.857,41.43Z" style="fill-rule:nonzero;"/>
    <path d="M118.924,46.684L116.994,46.684L116.309,44.157L113.744,44.157L113.084,46.684L111.216,46.684L113.931,37.109L116.247,37.109L118.924,46.684ZM116.047,42.763L115.475,40.583C115.325,39.985 115.163,39.214 115.039,38.629L115.001,38.629C114.877,39.226 114.715,40.011 114.578,40.571L114.005,42.763L116.047,42.763Z" style="fill-rule:nonzero;"/>
    <rect x="122.86" y="37.109" width="1.843" height="9.575" style="fill-rule:nonzero;"/>
    <path d="M133.543,46.684L131.7,46.684L129.646,42.725C129.099,41.682 128.608,40.609 128.177,39.512L128.127,39.512C128.202,40.695 128.239,42.04 128.239,43.746L128.239,46.684L126.571,46.684L126.571,37.109L128.563,37.109L130.58,40.994C131.115,42.008 131.593,43.052 132.012,44.12L132.037,44.12C131.925,42.899 131.875,41.542 131.875,39.985L131.875,37.109L133.543,37.109L133.543,46.684Z" style="fill-rule:nonzero;"/>
    <path d="M140.094,38.915C139.567,38.643 138.982,38.502 138.388,38.504C137.417,38.504 136.981,39.027 136.981,39.562C136.981,40.247 137.454,40.558 138.625,41.094C140.156,41.778 140.841,42.663 140.841,43.921C140.841,45.589 139.583,46.809 137.355,46.809C136.539,46.821 135.732,46.637 135.001,46.273L135.363,44.729C135.995,45.079 136.706,45.263 137.429,45.264C138.45,45.264 138.986,44.779 138.986,44.069C138.986,43.385 138.525,42.973 137.467,42.513C136.022,41.89 135.126,40.994 135.126,39.749C135.126,38.18 136.359,36.972 138.426,36.972C139.135,36.959 139.837,37.108 140.48,37.408L140.094,38.915Z" style="fill-rule:nonzero;"/>
    <path d="M148.039,38.703L145.673,38.703L145.673,46.684L143.83,46.684L143.83,38.703L141.477,38.703L141.477,37.109L148.039,37.109L148.039,38.703Z" style="fill-rule:nonzero;"/>
    <rect x="149.123" y="37.109" width="1.843" height="9.575" style="fill-rule:nonzero;"/>
    <path d="M158.624,38.703L156.258,38.703L156.258,46.684L154.415,46.684L154.415,38.703L152.062,38.703L152.062,37.109L158.624,37.109L158.624,38.703Z" style="fill-rule:nonzero;"/>
    <path d="M166.556,42.713C166.556,45.514 165.224,46.821 163.057,46.821C160.903,46.821 159.683,45.539 159.683,42.725L159.683,37.097L161.526,37.097L161.526,42.887C161.526,44.567 162.161,45.302 163.107,45.302C164.103,45.302 164.713,44.592 164.713,42.887L164.713,37.097L166.556,37.097L166.556,42.713Z" style="fill-rule:nonzero;"/>
    <path d="M174.19,38.703L171.824,38.703L171.824,46.684L169.982,46.684L169.982,38.703L167.628,38.703L167.628,37.109L174.19,37.109L174.19,38.703Z" style="fill-rule:nonzero;"/>
    <path d="M180.628,46.684L175.274,46.684L175.274,37.109L180.429,37.109L180.429,38.653L177.117,38.653L177.117,40.97L180.242,40.97L180.242,42.475L177.117,42.475L177.117,45.14L180.628,45.14L180.628,46.684Z" style="fill-rule:nonzero;"/>
    <path d="M192.296,41.778C192.296,45.116 190.603,46.821 188.225,46.821C185.697,46.821 184.265,44.705 184.265,41.929C184.265,39.064 185.847,36.96 188.349,36.96C191.001,36.96 192.296,39.226 192.296,41.778ZM186.195,41.89C186.195,43.77 186.93,45.315 188.287,45.315C189.657,45.315 190.366,43.783 190.366,41.853C190.366,40.097 189.706,38.467 188.299,38.467C186.855,38.467 186.195,40.136 186.195,41.89Z" style="fill-rule:nonzero;"/>
    <path d="M193.704,46.684L193.704,37.109L198.834,37.109L198.834,38.653L195.547,38.653L195.547,41.181L198.61,41.181L198.61,42.687L195.547,42.687L195.547,46.684L193.704,46.684Z" style="fill-rule:nonzero;"/>
    <path d="M208.871,38.703L206.505,38.703L206.505,46.684L204.663,46.684L204.663,38.703L202.309,38.703L202.309,37.109L208.871,37.109L208.871,38.703Z" style="fill-rule:nonzero;"/>
    <path d="M215.309,46.684L209.955,46.684L209.955,37.109L215.11,37.109L215.11,38.653L211.798,38.653L211.798,40.97L214.923,40.97L214.923,42.475L211.798,42.475L211.798,45.14L215.309,45.14L215.309,46.684Z" style="fill-rule:nonzero;"/>
    <path d="M222.843,46.448C222.169,46.709 221.449,46.832 220.727,46.809C217.85,46.809 216.257,44.854 216.257,42.015C216.257,38.666 218.411,36.972 220.951,36.972C221.629,36.941 222.306,37.065 222.93,37.334L222.569,38.828C222.086,38.618 221.564,38.512 221.038,38.516C219.457,38.516 218.186,39.599 218.186,41.916C218.186,44.082 219.295,45.24 221.025,45.24C221.557,45.246 222.084,45.152 222.582,44.966L222.843,46.448Z" style="fill-rule:nonzero;"/>
    <path d="M231.137,46.684L229.294,46.684L229.294,42.563L226.032,42.563L226.032,46.684L224.189,46.684L224.189,37.109L226.032,37.109L226.032,40.932L229.294,40.932L229.294,37.109L231.137,37.109L231.137,46.684Z" style="fill-rule:nonzero;"/>
    <path d="M239.979,46.684L238.136,46.684L236.081,42.725C235.534,41.682 235.044,40.609 234.612,39.512L234.562,39.512C234.637,40.695 234.674,42.04 234.674,43.746L234.674,46.684L233.006,46.684L233.006,37.109L234.998,37.109L237.015,40.994C237.551,42.008 238.029,43.052 238.447,44.12L238.472,44.12C238.36,42.899 238.31,41.542 238.31,39.985L238.31,37.109L239.979,37.109L239.979,46.684Z" style="fill-rule:nonzero;"/>
    <path d="M249.418,41.778C249.418,45.116 247.725,46.821 245.346,46.821C242.819,46.821 241.387,44.705 241.387,41.929C241.387,39.064 242.968,36.96 245.471,36.96C248.123,36.96 249.418,39.226 249.418,41.778ZM243.317,41.89C243.317,43.77 244.052,45.315 245.409,45.315C246.778,45.315 247.488,43.783 247.488,41.853C247.488,40.097 246.828,38.467 245.421,38.467C243.977,38.467 243.317,40.136 243.317,41.89L243.317,41.89Z" style="fill-rule:nonzero;"/>
    <path d="M256.093,46.684L250.826,46.684L250.826,37.109L252.669,37.109L252.669,45.128L256.093,45.128L256.093,46.684Z" style="fill-rule:nonzero;"/>
    <path d="M264.884,41.778C264.884,45.116 263.191,46.821 260.813,46.821C258.285,46.821 256.853,44.705 256.853,41.929C256.853,39.064 258.435,36.96 260.937,36.96C263.589,36.96 264.884,39.226 264.884,41.778ZM258.783,41.89C258.783,43.77 259.518,45.315 260.875,45.315C262.245,45.315 262.954,43.783 262.954,41.853C262.954,40.097 262.295,38.467 260.888,38.467C259.443,38.467 258.783,40.136 258.783,41.89Z" style="fill-rule:nonzero;"/>
    <path d="M273.215,46.311C272.338,46.617 271.417,46.776 270.489,46.784C269.252,46.868 268.033,46.446 267.114,45.614C266.22,44.62 265.755,43.312 265.819,41.977C265.811,41.862 265.806,41.746 265.806,41.629C265.806,39.09 267.896,37 270.435,37C270.532,37 270.629,37.004 270.725,37.01C271.492,36.985 272.255,37.121 272.966,37.408L272.58,38.928C272.004,38.676 271.379,38.557 270.75,38.579C269.044,38.579 267.749,39.625 267.749,41.94C267.749,44.157 268.932,45.277 270.514,45.277C270.835,45.292 271.156,45.245 271.46,45.14L271.46,42.8L270.078,42.8L270.078,41.343L273.215,41.343L273.215,46.311Z" style="fill-rule:nonzero;"/>
    <path d="M281.385,37.109L278.546,42.725L278.546,46.684L276.703,46.684L276.703,42.787L273.989,37.109L276.043,37.109L276.989,39.463C277.263,40.147 277.487,40.745 277.712,41.405L277.736,41.405C277.923,40.77 278.16,40.147 278.434,39.45L279.355,37.109L281.385,37.109Z" style="fill-rule:nonzero;"/>
    <path d="M24.379,47.792C23.07,47.701 21.906,48.671 21.76,49.974C21.76,51.14 22.933,52 24.379,52C25.827,52 27.002,51.14 27.002,49.974C26.855,48.67 25.689,47.7 24.379,47.792Z" style="fill:rgb(11,78,60);fill-rule:nonzero;"/>
    <path d="M1.132,35.045C1.132,35.045 1.309,34.889 1.527,34.702C1.599,34.638 1.78,34.531 1.888,34.442C2.028,34.322 1.977,34.226 2.038,33.984C2.201,33.299 2.323,32.149 3.068,31.769C3.373,31.859 3.688,31.904 4.006,31.901C5.9,31.901 7.459,30.342 7.459,28.448C7.459,26.553 5.9,24.995 4.006,24.995C2.418,25.045 1.015,26.068 0.482,27.564C0.31,28.067 0.177,28.582 0.085,29.106C-0.076,30.384 0.01,31.68 0.336,32.926C0.881,34.985 1.106,35.045 1.132,35.045Z" style="fill:rgb(11,78,60);fill-rule:nonzero;"/>
    <path d="M10.179,47.244C10.079,47.162 9.967,47.094 9.848,47.042C5.818,45.074 4.759,42.369 4.48,41.143C6.103,40.834 7.288,39.402 7.288,37.75C7.288,35.856 5.729,34.296 3.834,34.296C1.939,34.296 0.38,35.856 0.38,37.75C0.38,37.751 0.38,37.752 0.38,37.753C0.38,38.243 0.393,38.379 0.393,38.582C0.467,39.256 0.625,39.919 0.863,40.554C2.721,45.263 8.073,47.774 9.664,48.138C9.839,48.179 10.018,48.201 10.197,48.204C10.47,48.204 10.628,48.133 10.661,48.019C10.689,47.923 10.52,47.797 10.455,47.667C10.372,47.52 10.28,47.379 10.179,47.244Z" style="fill:rgb(11,78,60);fill-rule:nonzero;"/>
    <path d="M21.288,50.378C21.062,50.276 20.817,50.221 20.568,50.217C18.803,50.061 17.156,49.256 15.948,47.959C16.635,47.307 17.024,46.401 17.024,45.454C17.024,43.561 15.466,42.002 13.572,42.002C11.678,42.002 10.12,43.561 10.12,45.454C10.12,46.015 10.256,46.567 10.517,47.062C10.539,47.307 10.786,47.648 11.371,48.117C11.387,48.127 11.402,48.138 11.416,48.15C11.436,48.166 11.449,48.177 11.467,48.193L11.477,48.198C11.493,48.212 11.51,48.225 11.528,48.237C14.498,50.488 20.842,51.17 20.842,51.17C20.935,51.17 21.166,51.208 21.348,51.208C21.465,51.208 21.564,51.191 21.588,51.135C21.631,51.014 21.532,50.928 21.435,50.686C21.375,50.542 21.408,50.446 21.288,50.378Z" style="fill:rgb(11,78,60);fill-rule:nonzero;"/>
    <path d="M44.489,31.901C44.822,31.903 45.154,31.855 45.472,31.758C45.74,32.446 45.794,33.198 45.628,33.918C45.628,33.957 45.589,34.101 45.678,34.136C45.782,34.178 45.98,34.225 46.141,34.282C46.306,34.339 46.428,34.424 46.512,34.447C46.539,34.454 46.567,34.458 46.595,34.459C46.699,34.453 46.791,34.388 46.831,34.292C49.397,29.923 47.749,27.318 47.749,27.318C47.268,25.933 45.955,24.998 44.488,24.998C42.595,24.998 41.037,26.556 41.037,28.45C41.037,30.343 42.595,31.901 44.488,31.901C44.489,31.901 44.489,31.901 44.489,31.901L44.489,31.901Z" style="fill:rgb(11,78,60);fill-rule:nonzero;"/>
    <path d="M44.755,34.405C42.861,34.406 41.302,35.964 41.302,37.859C41.302,39.396 42.328,40.756 43.805,41.179C43.125,43.504 41.35,45.357 39.056,46.136C36.761,46.915 38.423,46.309 38.391,46.392C38.351,46.51 38.299,46.622 38.234,46.728C38.147,46.854 38.13,46.975 38.362,47.054C38.445,47.074 38.531,47.083 38.616,47.081C40.099,47.081 46.392,45.478 47.968,39.122C48.127,38.72 48.208,38.291 48.208,37.859C48.208,35.965 46.649,34.406 44.755,34.405L44.755,34.405Z" style="fill:rgb(11,78,60);fill-rule:nonzero;"/>
    <path d="M34.828,41.491C32.934,41.492 31.376,43.052 31.376,44.946C31.376,45.917 31.785,46.844 32.503,47.499C32.005,48.312 31.01,49.451 27.544,50.301C27.544,50.301 27.537,50.294 27.474,50.315C27.411,50.345 27.383,50.503 27.355,50.614C27.323,50.681 27.296,50.751 27.274,50.823C27.292,50.934 27.425,50.972 27.612,50.972C27.837,50.963 28.06,50.939 28.282,50.901C28.859,50.817 35.156,50.453 37.386,47.272C37.964,46.636 38.284,45.807 38.284,44.947C38.284,43.051 36.724,41.491 34.828,41.491Z" style="fill:rgb(11,78,60);fill-rule:nonzero;"/>
    <path d="M9.591,28.141L17.002,28.141C17.589,28.171 18.096,27.714 18.128,27.128L18.128,26.847C18.098,26.259 17.595,25.799 17.007,25.821L10.995,25.821C10.421,25.821 10.484,25.435 10.469,24.934L10.469,24.765C10.478,24.6 10.478,24.434 10.469,24.269L10.469,23.883L17.002,23.883C17.588,23.912 18.095,23.456 18.128,22.87L18.128,22.586C18.098,22 17.594,21.541 17.007,21.565L10.995,21.565C10.41,21.565 10.502,21.159 10.469,20.64L10.469,20.562C10.477,20.486 10.477,20.41 10.469,20.334L10.469,19.857L17.002,19.857C17.587,19.887 18.093,19.434 18.128,18.85L18.128,18.668C18.098,18.082 17.594,17.622 17.007,17.647L10.465,17.647L10.465,17.168C10.431,16.636 9.984,16.216 9.451,16.216C9.415,16.216 9.378,16.218 9.342,16.222L9.027,16.222C9.008,16.221 8.99,16.221 8.972,16.221C8.404,16.221 7.93,16.673 7.904,17.24L7.904,26.613C7.95,27.494 8.71,28.182 9.591,28.141Z" style="fill:rgb(11,78,60);fill-rule:nonzero;"/>
    <path d="M37.45,25.821L31.43,25.821C30.843,25.799 30.34,26.26 30.31,26.847L30.31,27.128C30.342,27.714 30.85,28.171 31.437,28.141L38.851,28.141C39.733,28.184 40.494,27.495 40.541,26.613L40.541,17.24C40.515,16.673 40.041,16.221 39.473,16.221C39.455,16.221 39.436,16.221 39.418,16.222L39.103,16.222C39.067,16.218 39.03,16.216 38.994,16.216C38.461,16.216 38.013,16.636 37.979,17.168L37.979,17.647L31.43,17.647C30.844,17.623 30.34,18.082 30.31,18.668L30.31,18.955C30.31,19.511 30.814,19.857 31.437,19.857L37.972,19.857L37.972,20.334C37.97,20.407 37.97,20.479 37.972,20.562L37.972,20.64C37.944,21.159 38.034,21.565 37.45,21.565L31.43,21.565C30.844,21.541 30.34,22 30.31,22.586L30.31,22.87C30.343,23.457 30.851,23.913 31.437,23.883L37.972,23.883L37.972,24.269C37.967,24.411 37.967,24.577 37.972,24.765L37.972,24.934C37.96,25.435 38.023,25.821 37.45,25.821Z" style="fill:rgb(11,78,60);fill-rule:nonzero;"/>
    <path d="M7.835,32.018L7.835,42.026C7.834,42.045 7.836,42.064 7.84,42.083C7.836,42.12 7.834,42.158 7.835,42.196C7.835,42.198 7.835,42.199 7.835,42.201C7.835,42.848 8.368,43.381 9.015,43.381C9.662,43.381 10.194,42.848 10.194,42.201C10.194,42.199 10.194,42.198 10.194,42.196C10.194,42.16 10.192,42.124 10.189,42.088C10.19,42.07 10.194,42.049 10.194,42.031L10.194,32.018L38.144,32.018L38.144,41.562C38.144,41.611 38.151,41.659 38.165,41.706C38.263,42.268 38.756,42.683 39.327,42.683C39.975,42.683 40.508,42.15 40.508,41.503C40.508,41.503 40.508,41.503 40.508,41.502C40.508,41.478 40.508,41.457 40.506,41.436L40.506,32.018L40.508,30.354C40.504,29.779 40.03,29.309 39.455,29.309C39.452,29.309 39.448,29.309 39.445,29.309L9.809,29.309C8.705,29.448 7.859,30.383 7.829,31.495L7.835,32.018Z" style="fill:rgb(11,78,60);fill-rule:nonzero;"/>
    <path d="M25.575,38.148L34.334,38.148C35.572,38.131 36.582,37.107 36.582,35.869C36.582,35.819 36.581,35.77 36.577,35.721C36.568,34.39 35.471,33.3 34.141,33.299L13.552,33.299C12.293,33.398 11.31,34.461 11.31,35.724C11.31,36.986 12.293,38.049 13.552,38.148L20.979,38.148C21.565,38.145 22.046,37.661 22.046,37.075C22.046,36.488 21.565,36.005 20.979,36.002L14.084,36.002C14.062,36.005 14.041,36.006 14.019,36.006C13.745,36.006 13.519,35.78 13.519,35.506C13.519,35.231 13.745,35.005 14.019,35.005C14.041,35.005 14.062,35.007 14.084,35.01L33.799,35.01C33.821,35.007 33.844,35.005 33.866,35.005C34.141,35.005 34.367,35.231 34.367,35.506C34.367,35.78 34.141,36.006 33.866,36.006C33.844,36.006 33.821,36.005 33.799,36.002L25.359,36.002C24.148,36.005 23.152,37.002 23.153,38.214L23.153,38.96L12.194,38.96C12.193,38.96 12.192,38.96 12.191,38.96C11.695,38.96 11.288,39.368 11.288,39.864C11.288,40.359 11.695,40.767 12.191,40.767C12.192,40.767 12.193,40.767 12.194,40.767L23.183,40.767L23.183,41.281C23.183,41.574 22.944,41.816 22.651,41.819L20.58,41.819C20.54,41.819 20.501,41.824 20.462,41.834L18.453,41.834C17.929,41.834 17.498,42.265 17.498,42.789C17.498,43.313 17.929,43.744 18.453,43.744L24.455,43.744C24.458,43.744 24.461,43.744 24.465,43.744C24.75,43.744 24.985,43.51 24.986,43.224L24.986,40.767L35.328,40.767C35.342,40.767 35.355,40.764 35.372,40.764C35.397,40.766 35.423,40.767 35.448,40.767C35.449,40.767 35.45,40.767 35.451,40.767C35.947,40.767 36.355,40.359 36.355,39.864C36.355,39.368 35.947,38.96 35.451,38.96C35.45,38.96 35.449,38.96 35.448,38.96L25.047,38.96L25.044,38.668L25.044,38.148L25.575,38.148Z" style="fill:rgb(11,78,60);fill-rule:nonzero;"/>
    <path d="M9.638,15.236C10.466,15.174 11.108,14.923 11.108,14.092L11.108,5.926L16.786,5.926L18.557,5.938L18.566,5.938C18.559,7.948 18.353,9.953 17.952,11.923C17.906,12.137 17.842,12.347 17.761,12.551C17.68,12.754 17.53,13.083 17.489,13.172C17.346,13.465 17.089,13.835 17.219,14.17C17.387,14.605 18.04,14.146 18.137,14.05C21.576,10.606 22.17,7.27 22.232,5.926L26.793,5.926C26.949,9.038 28.246,11.985 30.434,14.203C30.525,14.301 31.153,14.797 31.34,14.366C31.531,13.943 31.032,12.911 31.032,12.911C30.404,11.123 30.399,7.031 30.467,5.926L37.613,5.926L37.613,14.092C37.613,14.923 38.26,15.174 39.084,15.236C39.895,15.167 40.539,14.923 40.539,14.092L40.539,3.964C40.535,3.096 39.82,2.384 38.952,2.383L26.355,2.383C26.173,2.204 26.062,1.964 26.046,1.709C26.089,1.014 25.698,0.361 25.065,0.072C24.845,0.024 24.62,-0 24.396,0C24.183,-0.002 23.971,0.022 23.764,0.072C23.131,0.361 22.741,1.015 22.788,1.709C22.769,1.963 22.659,2.203 22.478,2.383L9.778,2.383C8.909,2.381 8.193,3.095 8.191,3.964L8.191,14.092C8.191,14.923 8.832,15.167 9.638,15.236Z" style="fill:rgb(11,78,60);fill-rule:nonzero;"/>
    <path d="M20.745,19.549C20.325,19.834 20.209,20.411 20.486,20.836L20.58,20.958C20.746,21.174 21.005,21.299 21.277,21.294C21.496,21.293 21.709,21.222 21.884,21.09L23.348,20L24.383,19.218L25.414,19.994L26.88,21.07C27.273,21.393 27.862,21.336 28.186,20.945L28.279,20.818C28.558,20.394 28.443,19.816 28.023,19.531L26.553,18.447L25.973,18.011L26.55,17.578L28.012,16.494C28.432,16.21 28.548,15.633 28.269,15.209L28.18,15.083C27.853,14.693 27.265,14.634 26.868,14.952L25.404,16.039L24.378,16.815L23.608,16.243L22.146,15.162C21.752,14.844 21.168,14.899 20.841,15.286L20.752,15.413C20.47,15.836 20.584,16.416 21.005,16.703L22.472,17.784L22.787,18.023L22.203,18.465L20.745,19.549Z" style="fill:rgb(11,78,60);fill-rule:nonzero;"/>
    <path d="M20.58,28.057C20.746,28.274 21.005,28.4 21.278,28.395C21.497,28.394 21.709,28.323 21.884,28.192L23.348,27.1L24.383,26.314L25.415,27.089L26.88,28.168C27.273,28.489 27.861,28.433 28.186,28.043L28.279,27.917C28.558,27.493 28.443,26.916 28.023,26.632L26.553,25.546L25.973,25.114L26.55,24.674L28.012,23.59C28.433,23.307 28.548,22.729 28.27,22.306L28.18,22.181C27.853,21.79 27.266,21.731 26.868,22.049L25.404,23.136L24.378,23.916L23.608,23.337L22.146,22.259C21.753,21.939 21.167,21.994 20.842,22.383L20.752,22.509C20.47,22.933 20.584,23.513 21.005,23.799L22.473,24.88L22.788,25.119L22.203,25.561L20.746,26.646C20.325,26.931 20.208,27.509 20.487,27.934L20.58,28.057Z" style="fill:rgb(11,78,60);fill-rule:nonzero;"/>
</svg>
